<?xml version="1.0" encoding="iso-8859-1"?>
<!-- Generator: Adobe Illustrator 19.0.0, SVG Export Plug-In . SVG Version: 6.00 Build 0)  -->
<svg version="1.1" id="Layer_1" xmlns="http://www.w3.org/2000/svg" xmlns:xlink="http://www.w3.org/1999/xlink" x="0px" y="0px"
	 viewBox="0 0 495 495" style="enable-background:new 0 0 495 495;" xml:space="preserve">
<g>
	<path style="fill:#FFDA44;" d="M247.5,495H495V247.5H247.5V495z M307.5,351.25H435v40H307.5V351.25z"/>
	<path style="fill:#FFCD00;" d="M0,247.5V495h247.5V247.5H0z M187.5,426.25H60v-40h127.5V426.25z M187.5,356.25H60v-40h127.5V356.25
		z"/>
	<path style="fill:#FFCD00;" d="M247.5,0v247.5H495V0H247.5z M402.186,182.97l-30.936-30.936l-29.194,29.194l-28.285-28.284
		l29.195-29.195l-30.936-30.936l28.285-28.284l30.936,30.936l29.194-29.194l28.285,28.284l-29.195,29.195l30.936,30.936
		L402.186,182.97z"/>
	<polygon style="fill:#2488FF;" points="428.729,94.555 400.444,66.271 371.25,95.465 340.314,64.53 312.029,92.814 342.965,123.75 
		313.771,152.945 342.056,181.229 371.25,152.035 402.186,182.97 430.471,154.686 399.535,123.75 	"/>
	<rect x="60" y="386.25" style="fill:#2488FF;" width="127.5" height="40"/>
	<rect x="60" y="316.25" style="fill:#2488FF;" width="127.5" height="40"/>
	<rect x="307.5" y="351.25" style="fill:#2488FF;" width="127.5" height="40"/>
	<path style="fill:#FFDA44;" d="M247.5,0H0v247.5h247.5V0z M187.5,143.75h-43.75v41.288h-40V143.75H60v-40h43.75V62.462h40v41.288
		h43.75V143.75z"/>
	<polygon style="fill:#2488FF;" points="143.75,62.462 103.75,62.462 103.75,103.75 60,103.75 60,143.75 103.75,143.75 
		103.75,185.038 143.75,185.038 143.75,143.75 187.5,143.75 187.5,103.75 143.75,103.75 	"/>
</g>
<g>
</g>
<g>
</g>
<g>
</g>
<g>
</g>
<g>
</g>
<g>
</g>
<g>
</g>
<g>
</g>
<g>
</g>
<g>
</g>
<g>
</g>
<g>
</g>
<g>
</g>
<g>
</g>
<g>
</g>
</svg>
